<?xml version="1.0" standalone="no"?><svg xmlns="http://www.w3.org/2000/svg" viewBox="0 0 1440 320"><path fill="#f3f4f5" fill-opacity="1" d="M0,192L38.9,256L77.8,320L116.8,224L155.7,288L194.6,64L233.5,256L272.4,192L311.4,64L350.3,256L389.2,256L428.1,32L467,192L505.9,96L544.9,160L583.8,288L622.7,0L661.6,192L700.5,224L739.5,256L778.4,192L817.3,96L856.2,224L895.1,160L934.1,256L973,0L1011.9,192L1050.8,96L1089.7,224L1128.6,160L1167.6,160L1206.5,160L1245.4,128L1284.3,256L1323.2,32L1362.2,64L1401.1,128L1440,256L1440,0L1401.1,0L1362.2,0L1323.2,0L1284.3,0L1245.4,0L1206.5,0L1167.6,0L1128.6,0L1089.7,0L1050.8,0L1011.9,0L973,0L934.1,0L895.1,0L856.2,0L817.3,0L778.4,0L739.5,0L700.5,0L661.6,0L622.7,0L583.8,0L544.9,0L505.9,0L467,0L428.1,0L389.2,0L350.3,0L311.4,0L272.4,0L233.5,0L194.6,0L155.7,0L116.8,0L77.8,0L38.9,0L0,0Z"></path></svg>